<svg id="Advenica-SVG-logo" data-name="Layer 1" xmlns="http://www.w3.org/2000/svg" viewBox="0 0 308.86 433.87"><defs><style>.cls-white{fill:#568ca3;}</style></defs><title>Advenica</title><path class="cls-white" d="M272.52,300.14a60.13,60.13,0,0,1,9.12,3.48c5,2.41,6.39,3.92,9.62,4.06a13.69,13.69,0,0,0,8.71-3.07c3.14-2.41,4.39-5.43,5.64-8.54.71-1.77,2-5.4,2.74-12.94.82-8.49.41-34.5.41-34.5a153.24,153.24,0,0,1-70.05,50.65s9.5-1.12,16.62-1.15A73.26,73.26,0,0,1,272.52,300.14Z"/><ellipse class="cls-white" cx="96.32" cy="151.55" rx="15.42" ry="46.27"/><path class="cls-white" d="M174.65,311.34A159,159,0,0,1,51.14,234.81a37.94,37.94,0,0,0,20.33,6.13c30.6,0,55.41-39.51,55.41-88.24S102.08,64.45,71.47,64.45a36,36,0,0,0-11.78,2,159.29,159.29,0,0,1,115-63.68c-4.5-.38-9.06-.57-13.66-.57C73.4,2.2,2.4,71.53,2.4,157.06S73.4,311.91,161,311.91C165.59,311.91,170.15,311.72,174.65,311.34Zm-100-239.5c25.14,0,45.52,36,45.52,80.4s-20.38,80.4-45.52,80.4c-21.69,0-39.82-26.8-44.4-62.67-.36-4.26-.56-8.57-.56-12.92A151.24,151.24,0,0,1,43.81,93.17C51.92,79.94,62.76,71.84,74.68,71.84Z"/><path class="cls-white" d="M33.11,400.55a11.65,11.65,0,0,0-3.2-3.7,15,15,0,0,0-3.9-2.1,16.53,16.53,0,0,0-3.2-.85,18.74,18.74,0,0,0-2.8-.25,17.06,17.06,0,0,0-12.16,5.3q-5.45,5.3-5.45,14.81,0,9.31,4.8,14.26T20,433q5.6,0,8.4-2a18.32,18.32,0,0,0,4.7-4.9v6.2h7.6V397.08h-7.6Zm0,12.61q0,6.51-3.2,10.06t-9.3,3.55A9.61,9.61,0,0,1,13.1,423a13.76,13.76,0,0,1-3.2-9.25q0-6.7,3.15-10t8.85-3.25q6.1,0,8.65,3.9a15.39,15.39,0,0,1,2.55,8.6Z"/><path class="cls-white" d="M77.34,400.55a10.68,10.68,0,0,0-3.85-4.35A16.31,16.31,0,0,0,68.43,394q-1-.2-1.9-.3a16.69,16.69,0,0,0-1.8-.1h-.8a3.36,3.36,0,0,0-.8.1,18.22,18.22,0,0,0-11.26,5.45q-5.15,5-5.15,15.16a20.74,20.74,0,0,0,.3,3.4,18.16,18.16,0,0,0,1,3.6,21.36,21.36,0,0,0,5.55,8.4q4,3.81,10.86,3.8h1.1a15.42,15.42,0,0,0,3.15-.4,14.83,14.83,0,0,0,3.75-1.4,16.26,16.26,0,0,0,2.9-2.25,15.34,15.34,0,0,0,2.6-3.45v6.2h6.9V365h-7.5Zm0,12.61q0,.9,0,1.8a13.72,13.72,0,0,1-.25,1.9,17,17,0,0,1-3.15,7.3q-2.45,3.3-7.75,3.3-4.8,0-7.35-2.45a13.5,13.5,0,0,1-3.55-5.35,11,11,0,0,1-.8-2.8,17.65,17.65,0,0,1-.2-2.5c0-.53,0-1.1.05-1.7a9.09,9.09,0,0,1,.25-1.7,16.71,16.71,0,0,1,3.4-7.65q2.7-3.45,8.2-3.45t8.4,3.55q2.8,3.55,2.8,9.66Z"/><polygon class="cls-white" points="108.15 418.66 97.55 395.45 89.44 395.45 108.15 433.57 126.96 395.45 118.86 395.45 108.15 418.66"/><path class="cls-white" d="M163.88,406.85a22.37,22.37,0,0,0-5.2-9.45q-3.9-4.35-11.41-4.35-9,0-13.36,5.9a24.91,24.91,0,0,0-4.85,13.41v.7a.9.9,0,0,0-.1.4v1.25a3.5,3.5,0,0,0,.1.85A21.82,21.82,0,0,0,134.42,428a15.33,15.33,0,0,0,12.26,5.6q6.5,0,10-2.3a21.26,21.26,0,0,0,5.5-5q.5-.9,1-1.7c.33-.53.63-1.07.9-1.6l-6.2-3.1v.1a11.52,11.52,0,0,1-8,6.6,9.65,9.65,0,0,1-1,.15c-.34,0-.67,0-1,0a10.9,10.9,0,0,1-8-3.3,11.63,11.63,0,0,1-3.3-8.6h28.11v-1.6a25.14,25.14,0,0,0-.2-3.1A32.18,32.18,0,0,0,163.88,406.85Zm-27.31,2.3a11.08,11.08,0,0,1,2.7-6.24,10.35,10.35,0,0,1,6.3-3.52,10.52,10.52,0,0,1,1.7-.15,8.86,8.86,0,0,1,6.85,2.9,12.34,12.34,0,0,1,3.15,7Z"/><path class="cls-white" d="M194.4,394.75a11,11,0,0,0-1.9-.4,16.46,16.46,0,0,0-1.8-.1,21.82,21.82,0,0,0-4.75.9,12.08,12.08,0,0,0-3.25,1.7q-.9.7-1.85,1.6t-2.15,2v-5h-6.9v36.82h7.5V411q0-5.62,2.75-8.08a9,9,0,0,1,6.15-2.46,4.61,4.61,0,0,1,.65,0,5,5,0,0,0,.75.05,9.15,9.15,0,0,1,4.55,2.16,5.62,5.62,0,0,1,2.05,4.47v25.09h7.5V407.35q0-5.9-2.9-8.85A13,13,0,0,0,194.4,394.75Z"/><rect class="cls-white" x="216.61" y="395.45" width="7.5" height="36.82"/><path class="cls-white" d="M224.41,379.17a6.48,6.48,0,0,0-1.35-2,5.21,5.21,0,0,0-2.65-1.4v.1a4.26,4.26,0,0,0-3.55,1.45,5,5,0,0,0-1.15,3.15,5.1,5.1,0,0,0,1.15,3.25,4.25,4.25,0,0,0,3.55,1.45,3.52,3.52,0,0,0,2.85-1.25,7.06,7.06,0,0,0,1.45-3.15,6.66,6.66,0,0,0,0-.8A2.57,2.57,0,0,0,224.41,379.17Z"/><path class="cls-white" d="M258.33,394.15q-1.2-.2-2.4-.35a19.27,19.27,0,0,0-2.4-.15,20.64,20.64,0,0,0-13.76,5.15q-6.05,5.15-6.05,15.56,0,9.5,5.8,14.26a21.8,21.8,0,0,0,12.81,5.15,3.46,3.46,0,0,0,.8.1h1.8a7.12,7.12,0,0,0,1.1-.1,24.35,24.35,0,0,0,4-.75,23.11,23.11,0,0,0,3.7-1.35v-9.21c-.34.33-.69.65-1.05,1a9,9,0,0,1-1.05.75,11.66,11.66,0,0,1-5.25,2.3q-2.45.3-3.25.3a.78.78,0,0,1-.3.1h-.1c0,.07,0,.1-.05.1h-.15a10,10,0,0,1-8.5-4,14.51,14.51,0,0,1-3.1-8.65v-.3a8.38,8.38,0,0,1,0-1,7.9,7.9,0,0,0,.05-.85,14.6,14.6,0,0,1,3.5-7.86q3-3.55,8.61-3.85.9,0,2.85.2a13.45,13.45,0,0,1,4.15,1.2,17.06,17.06,0,0,1,2.2,1.45,12.4,12.4,0,0,1,2,2v-9.21q-1.4-.6-2.9-1.1T258.33,394.15Z"/><path class="cls-white" d="M301.25,400.55a11.65,11.65,0,0,0-3.2-3.7,15,15,0,0,0-3.9-2.1,16.54,16.54,0,0,0-3.2-.85,18.72,18.72,0,0,0-2.8-.25,17.06,17.06,0,0,0-12.16,5.3q-5.45,5.3-5.45,14.81,0,9.31,4.8,14.26t12.81,5q5.6,0,8.4-2a18.3,18.3,0,0,0,4.7-4.9v6.2h7.6V397.08h-7.6Zm0,12.61q0,6.51-3.2,10.06t-9.31,3.55a9.61,9.61,0,0,1-7.5-3.75,13.76,13.76,0,0,1-3.2-9.25q0-6.7,3.15-10t8.85-3.25q6.1,0,8.65,3.9a15.39,15.39,0,0,1,2.55,8.6Z"/></svg>
